<?xml version="1.0" encoding="utf-8"?>
<?xml-stylesheet type="text/xsl" href="rss1.xsl"?>
<rss version="2.0" xmlns:atom="http://www.w3.org/2005/Atom" xmlns:content="http://purl.org/rss/1.0/modules/content/" xmlns:dc="http://purl.org/dc/elements/1.1/" xmlns:media="http://search.yahoo.com/mrss/">
<channel>
 <title>Getty</title>
 <link>http://www.gettyimg.com/</link>
 <atom:link href="http://www.gettyimg.com/" rel="self" type="application/rss+xml" />

 
                <item>
                <title><![CDATA[【Vimeo】Sabrina Carpenter - Feather (VIMEO-4K-LK72)]]></title>
                <link><![CDATA[https://sharemania.us/threads/sabrina-carpenter-feather-vimeo-4k-lk72.244185/]]></link>
                <description><![CDATA[<article>
<blockquote class="messageText SelectQuoteContainer ugc baseHtml">
<div style="text-align: center"><img src="https://i.imgur.com/NStfVPH.jpeg" class="bbCodeImage LbImage" alt="[​IMG]" data-url="https://i.imgur.com/NStfVPH.jpeg" style=""> <br>
<div class="bbCodeBlock bbCodeVfcHH HiddenContent">
<div class="attribution type">Hidden Content:</div>
<blockquote>You must reply before you can see the hidden data contained here.</blockquote>
</div></div>
<div class="messageTextEndMarker">&nbsp;</div>
</blockquote>
</article>]]></description>
                <author><![CDATA[luke72]]></author>
                </item>

                
                <item>
                <title><![CDATA[【Music Videos】Wu-Tang Clan - Da Mystery Of Chessboxin' (1080p 5.1) (Clean)]]></title>
                <link><![CDATA[https://sharemania.us/threads/wu-tang-clan-da-mystery-of-chessboxin-1080p-5-1-clean.244183/]]></link>
                <description><![CDATA[<article>
<blockquote class="messageText SelectQuoteContainer ugc baseHtml">
<img src="https://i.ibb.co/Zzh3kbs/Wu-Tang-Clan-Da-Mystery-Of-Chessboxin-1080p-5-1-mp4-thumbs-2024-05-11-20-49-27.jpg" class="bbCodeImage LbImage" alt="[​IMG]" data-url="https://i.ibb.co/Zzh3kbs/Wu-Tang-Clan-Da-Mystery-Of-Chessboxin-1080p-5-1-mp4-thumbs-2024-05-11-20-49-27.jpg" style=""><br>
<br>
<div class="ToggleTriggerAnchor bbCodeSpoilerContainer">
<button type="button" class="button bbCodeSpoilerButton ToggleTrigger Tooltip JsOnly" data-target="> .SpoilerTarget"><span>Spoiler: <span class="SpoilerTitle">MediaInfo</span></span></button>
<div class="SpoilerTarget bbCodeSpoilerText">Wu-Tang Clan - Da Mystery Of Chessboxin' (1080p 5.1).mp4<br>
Format : MPEG-4<br>
Format profile : Base Media / Version 2<br>
Codec ID : mp42 (mp42/mp41)<br>
File size : 354 MiB<br>
Duration : 4 min 48 s<br>
Overall bit rate mode : Variable<br>
Overall bit rate : 10.3 Mb/s<br>
Frame rate : 30.000 FPS<br>
Encoded date : 2024-05-12 00:38:28 UTC<br>
Tagged date : 2024-05-12 00:39:02 UTC<br>
TIM : 00:00:00:00<br>
TSC : 30<br>
TSZ : 1<br>
<br>
Video<br>
ID : 1<br>
Format : AVC<br>
Format/Info : Advanced Video Codec<br>
Format profile : Main@L4.1<br>
Format settings : CABAC / 4 Ref Frames<br>
Format settings, CABAC : Yes<br>
Format settings, Reference : 4 frames<br>
Codec ID : avc1<br>
Codec ID/Info : Advanced Video Coding<br>
Duration : 4 min 48 s<br>
Bit rate : 9 957 kb/s<br>
Width : 1 920 pixels<br>
Height : 1 080 pixels<br>
Display aspect ratio : 16:9<br>
Frame rate mode : Constant<br>
Frame rate : 30.000 FPS<br>
Color space : YUV<br>
Chroma subsampling : 4:2:0<br>
Bit depth : 8 bits<br>
Scan type : Progressive<br>
Bits/(Pixel*Frame) : 0.160<br>
Stream size : 343 MiB (97%)<br>
Language : English<br>
Encoded date : 2024-05-12 00:38:28 UTC<br>
Tagged date : 2024-05-12 00:38:28 UTC<br>
Color range : Limited<br>
Color primaries : BT.709<br>
Transfer characteristics : BT.709<br>
Matrix coefficients : BT.709<br>
Codec configuration box : avcC<br>
<br>
Audio<br>
ID : 2<br>
Format : AAC LC<br>
Format/Info : Advanced Audio Codec Low Complexity<br>
Codec ID : mp4a-40-2<br>
Duration : 4 min 48 s<br>
Source duration : 4 min 48 s<br>
Bit rate mode : Variable<br>
Bit rate : 317 kb/s<br>
Maximum bit rate : 726 kb/s<br>
Channel(s) : 6 channels<br>
Channel layout : C L R Ls Rs LFE<br>
Sampling rate : 48.0 kHz<br>
Frame rate : 46.875 FPS (1024 SPF)<br>
Compression mode : Lossy<br>
Stream size : 10.9 MiB (3%)<br>
Source stream size : 10.9 MiB (3%)<br>
Language : English<br>
Encoded date : 2024-05-12 00:38:28 UTC<br>
Tagged date : 2024-05-12 00:38:28 UTC</div>
</div><br>
<div class="bbCodeBlock bbCodeVfcHH HiddenContent">
<div class="attribution type">Hidden Content:</div>
<blockquote>You must reply before you can see the hidden data contained here.</blockquote>
</div>
<div class="messageTextEndMarker">&nbsp;</div>
</blockquote>
</article>]]></description>
                <author><![CDATA[DJ-RoGeRs-BS]]></author>
                </item>

                
                <item>
                <title><![CDATA[【Vimeo】MAX, bbno$ - Working for the Weekend (VIMEO-2K-LK72)]]></title>
                <link><![CDATA[https://sharemania.us/threads/max-bbno-working-for-the-weekend-vimeo-2k-lk72.244184/]]></link>
                <description><![CDATA[<article>
<blockquote class="messageText SelectQuoteContainer ugc baseHtml">
<div style="text-align: center"><img src="https://i.imgur.com/u8veyNc.jpeg" class="bbCodeImage LbImage" alt="[​IMG]" data-url="https://i.imgur.com/u8veyNc.jpeg" style=""><br>
<div class="bbCodeBlock bbCodeVfcHH HiddenContent">
<div class="attribution type">Hidden Content:</div>
<blockquote>You must reply before you can see the hidden data contained here.</blockquote>
</div></div>
<div class="messageTextEndMarker">&nbsp;</div>
</blockquote>
</article>]]></description>
                <author><![CDATA[luke72]]></author>
                </item>

                </channel></rss>